<svg xmlns="http://www.w3.org/2000/svg" xmlns:xlink="http://www.w3.org/1999/xlink" id="shape" width="21" height="21" x="0" y="0" enable-background="new 0 0 21 21" version="1.1" viewBox="0 0 21 21" xml:space="preserve"><g id="shape"><g><polygon fill="#C70000" points="6.027 0 0 6.027 0 15.022 6.027 21 14.99 21 21 14.99 21 5.996 14.99 0"/><path fill="#C70000" d="M15.715,7.206l-2.118-2.118l-3.177,3.177L7.242,5.088L5.124,7.206l3.177,3.177l-3.177,3.177l2.118,2.118 l3.177-3.177l3.177,3.177l2.118-2.118l-3.177-3.177L15.715,7.206z"/></g><g><polygon fill="#C70000" points="6.027 0 0 6.027 0 15.022 6.027 21 14.99 21 21 14.99 21 5.996 14.99 0"/><path fill="#FFF" d="M15.715,7.206l-2.118-2.118l-3.177,3.177L7.242,5.088L5.124,7.206l3.177,3.177l-3.177,3.177l2.118,2.118 l3.177-3.177l3.177,3.177l2.118-2.118l-3.177-3.177L15.715,7.206z"/></g></g></svg>